<?xml version="1.0" encoding="UTF-8"?>
<svg viewBox="0 0 343 344" xmlns="http://www.w3.org/2000/svg">
 <path transform="rotate(11.924 143.98 96.822)" d="m176.57 45.763c-4.222-9.8667-20.11-5.8119-29.551-7.1449-7.8116-1.1029-14.84-5.6986-22.635-7.3046-14.734-3.0359-35.979 2.7142-44.297 12.947-8.4743 10.425-9.3328 25.301-5.8547 37.069 1.279 4.3276 4.2473 8.1928 5.5744 12.523 2.4533 8.006 3.4405 18.314 2.9075 26.55-0.49451 7.6398-12.122 19.867-6.4398 27.05 3.3347 4.2159 10.628 6.389 16.043 8.4062 14.689 5.4722 30.438 7.2862 46.422 7.2812 5.9448-0.001999 17.134-1.5104 21.912-4.6633 2.493-1.6446 1.9064-5.2183 2.2654-7.5171 0.95004-6.0829 0.99342-13.647 4.9068-19.036 9.7488-13.426 22.087-25.69 32.928-38.572 4.9294-5.8575 11.755-12.529 13.837-19.537 2.1673-7.2982 1.3216-18.817-5.5626-24.376-8.0939-6.5353-20.846-6.294-30.996-3.8983m-37.3-5.7895c-12.256 3.0373-20.729 17.91-20.749 27.552-0.14604 3.0962-1.5102 8.7514 2.515 10.52-1.7592-11.091 0.99468-27.684 13.94-34.492 8.9201-4.6914 29.192-5.4674 36.744 1.482 4.6854 4.3123 4.7207 11.1 3.902 16.479-1.3361 8.7724-10.661 14.539-14.974 22.041 7.8675-1.7643 16.896-15.734 17.309-22.041 0.4156-6.3401-3.372-12.929 6.5836-15.064 19.906-4.2708 26.95 10.292 26.176 22.862-0.8577 4.6705-4.1354 11.684-7.3477 15.747-7.1954 9.098-14.261 18.971-23.199 27.051-2.8508 2.5773-11.34 13.779-16.618 8.7093-1.8058-1.7348 0.53571-4.1668 1.6914-5.7037 3.9875-5.3009 8.517-10.14 12.381-15.529-7.7248 3.0272-9.435 13.166-17.605 17.027-4.2805 2.0228-12.788-0.97783-13.632-5.0124-0.86391-4.1247 2.3125-9.5794 4.83-13.017-5.6443 3.3197-4.2183 9.636-9.0477 12.652-2.5307 1.5805-7.146 0.39804-9.8817-0.14446-2.9413-0.5826-7.4831-0.8514-9.6139-2.746-1.5832-1.4081-1.0041-4.017-1.0079-5.7543-0.008171-3.9038-0.63754-7.761-1.8862-11.522 0 0 1.4097 12.647-1.797 15.871-3.0388 3.0547-15.466 2.101-16.419-1.353l-1.2751-11.512c-1.6542 3.6163-0.21754 7.511-1.8674 11.011-0.99532 2.1124-6.6666 5.077-8.442 1.9316-1.6046-2.8428-0.70062-7.8096-1.0736-10.939-0.52048-4.3662-2.3197-9.2533-3.707-13.525 0 0 1.79 13.252 1.8838 19.537 0.040787 2.7331-0.9907 8.8322-3.3499 6.0159-2.6137-5.4076-1.798-8.6501-3.4998-14.204-1.2769-4.1668-4.087-9.2165-5.422-13.353-3.4996-10.843-2.0932-23.732 4.9417-33.563 9.062-12.663 33.489-17.653 49.459-11.649 3.3211 1.2486 7.9801 2.1059 10.06 4.636m-39.611 20.038l0.4896 0.6651c0.74257-7.4325 6.6788-17.321 16.487-19.2-9.6739-3.204-20.196 12.334-16.976 18.535m91.797-5.5103c2.0824 4.045 4.1174 7.7629 3.056 12.269-0.4001 3.5927-3.305 7.7296-4.3136 11.275 6.5973-4.371 9.7006-19.049 1.2575-23.544m-32.066 99.186c-23.5-9.8514-57.449-15.035-83.624-9.5178 0.4483-7.8156 6.7115-14.712 7.4863-22.542 0.26231-2.651-0.84501-7.5346 1.6898-9.6671 3.8847-3.2681 13.367-2.402 18.489-2.3534 16.87 0.1598 35.439 2.667 50.3 9.3034 3.7807 1.6887 9.7701 3.2225 12.186 6.2452 2.1503 2.6905-2.0636 5.9697-3.1576 8.4944-2.52 5.8154-3.3644 13.878-3.3695 20.038m-5.429 0.6181c3.0456 1.5371 4.9647 2.7756 2.3112 4.0563-15.525 5.8675-33.894 2.9129-49.697-1.5786-4.0705-1.1572-15.796-3.4815-15.375-8.0836 0.4437-4.8571 10.545-4.0824 14.406-4.0824 16.807 0.55426 33.026 3.0707 48.355 9.6883z" fill="#f00"/>
</svg>
